<?xml version="1.0" encoding="utf-8"?>
<!-- Generator: Adobe Illustrator 16.0.4, SVG Export Plug-In . SVG Version: 6.00 Build 0)  -->
<!DOCTYPE svg PUBLIC "-//W3C//DTD SVG 1.1//EN" "http://www.w3.org/Graphics/SVG/1.1/DTD/svg11.dtd">
<svg version="1.1" id="Layer_1" xmlns="http://www.w3.org/2000/svg" xmlns:xlink="http://www.w3.org/1999/xlink" x="0px" y="0px"
	 width="300px" height="300px" viewBox="0 0 300 300" enable-background="new 0 0 300 300" xml:space="preserve">
<polygon fill="#F36F21" points="72.182,206.311 68.674,206.311 68.674,183.043 78.657,183.043 78.657,186.569 72.182,186.569 
	72.182,192.914 76.913,192.914 76.913,196.439 72.182,196.439 "/>
<path fill="#F36F21" d="M94.435,183.062c1.955,0,3.389,0.537,4.305,1.614c0.804,0.94,1.206,2.251,1.206,3.933v3.377
	c0,1.646-0.625,3.037-1.874,4.176l2.597,10.148h-3.792l-2.126-8.758h-0.316h-2.022v8.758h-3.507v-23.248H94.435z M96.532,188.666
	c0-1.349-0.668-2.022-2.004-2.022h-2.115v7.44h2.115c0.557,0,1.03-0.198,1.42-0.594c0.389-0.396,0.584-0.873,0.584-1.43V188.666z"/>
<polygon fill="#F36F21" points="111.512,206.311 111.512,183.043 121.494,183.043 121.494,186.569 115.019,186.569 115.019,192.914 
	119.75,192.914 119.75,196.439 115.019,196.439 115.019,202.785 121.494,202.785 121.494,206.311 "/>
<path fill="#F36F21" d="M136.247,200.967l-0.852,5.344h-3.651l3.952-23.248h4.824l3.896,23.248h-3.687l-0.821-5.344H136.247z
	 M138.088,188.387l-1.299,9.166h2.598L138.088,188.387z"/>
<polygon fill="#F36F21" points="158.709,198.936 158.709,206.311 155.202,206.311 155.202,183.044 158.709,183.044 158.709,191.337 
	162.995,183.044 166.733,183.044 161.934,192.534 167.562,206.311 163.439,206.311 159.758,196.864 "/>
<path fill="#58595B" d="M182.354,182.766c1.546,0,2.859,0.545,3.942,1.633c1.082,1.088,1.623,2.4,1.623,3.933v12.691
	c0,1.546-0.544,2.86-1.633,3.942c-1.088,1.084-2.399,1.625-3.933,1.625c-1.546,0-2.857-0.545-3.935-1.634
	c-1.075-1.089-1.613-2.399-1.613-3.934v-12.691c0-1.546,0.545-2.86,1.633-3.942S180.832,182.766,182.354,182.766 M184.266,188.258
	c0-0.558-0.195-1.03-0.584-1.42c-0.391-0.39-0.863-0.584-1.42-0.584s-1.033,0.194-1.43,0.584c-0.396,0.39-0.593,0.862-0.593,1.42
	v12.728c0,0.558,0.197,1.03,0.593,1.419c0.396,0.391,0.873,0.585,1.43,0.585s1.029-0.194,1.42-0.585
	c0.389-0.389,0.584-0.861,0.584-1.419V188.258z"/>
<path fill="#58595B" d="M204.366,206.57c-1.546,0-2.857-0.538-3.934-1.614s-1.614-2.381-1.614-3.915v-17.979h3.434v17.941
	c0,0.557,0.196,1.03,0.593,1.42c0.396,0.389,0.873,0.584,1.429,0.584c0.558,0,1.03-0.195,1.42-0.584
	c0.39-0.39,0.584-0.863,0.584-1.42v-17.941h3.655v17.979c0,1.559-0.544,2.87-1.633,3.934
	C207.212,206.038,205.899,206.57,204.366,206.57"/>
<polygon fill="#58595B" points="224.301,186.588 220.571,186.588 220.571,183.062 231.518,183.062 231.518,186.588 227.808,186.588 
	227.808,206.311 224.301,206.311 "/>
<path fill="#F7941E" d="M168.813,146.72L168.813,146.72z"/>
<path fill="#7FCBAE" d="M157.538,101.7l-23.158,2.148c-6.156,0.571-11.539,3.53-15.332,7.869l16.036,10.954
	c1.103-0.336,2.291-0.562,3.566-0.676c4.61-0.413,9.22-0.834,13.829-1.257l11.091-18.804
	C161.619,101.6,159.598,101.509,157.538,101.7"/>
<path fill="#00B6F1" d="M115.795,154.805c0.207,2.236,0.736,4.369,1.525,6.363c2.84-8.486,5.679-16.971,8.522-25.456
	c0.082-0.246,0.17-0.491,0.257-0.736l-11.387,8.149L115.795,154.805z"/>
<path fill="#44C8F5" d="M135.017,123.966l-15.367-10.497c-4.093,4.78-6.027,10.823-5.45,17.044l1.02,10.998l10.925-7.818
	c0.121-0.335,0.244-0.669,0.369-1.003C128.162,128.283,131.021,125.352,135.017,123.966"/>
<path fill="#F36F21" d="M168.813,146.72L168.813,146.72l-11.151,9.181l6.486,16.694l0.388-0.036
	c11.07-1.025,19.656-9.764,20.94-20.393L168.813,146.72z"/>
<path fill="#F04E23" d="M135.151,174.437c2.011,0.364,4.1,0.468,6.228,0.271l22.77-2.112l-6.485-16.694L135.151,174.437z"/>
<path fill="#FAA61A" d="M184.313,133.957l-15.5,12.762l16.663,5.446c0.193-1.602,0.225-3.245,0.07-4.913L184.313,133.957z"/>
<path fill="#72BF44" d="M149.163,128.686c-1.278,0.121-2.555,0.241-3.833,0.363c-2.203,0.209-4.406,0.425-6.6,0.709
	c-3.252,0.421-5.16,2.48-6.177,5.42c-1.411,4.081-2.723,8.196-4.066,12.3c-2.34,7.156-4.667,14.315-7.014,21.469
	c-0.207,0.632-0.265,1.343-0.807,1.899c2.138-0.608,3.411-2.137,4.124-4.057c0.955-2.574,1.678-5.233,2.543-7.843
	c0.851-2.569,1.417-5.248,2.63-7.684c2.226-4.467,5.792-7.14,10.57-7.946L149.163,128.686z"/>
<path fill="#FFC20E" d="M168.813,146.72L168.813,146.72l-21.893-14.233l-6.388,10.831c0.322-0.054,0.65-0.1,0.983-0.137
	c5.319-0.596,10.656-1.024,15.985-1.519c0.313-0.029,0.633-0.007,1.123-0.01c-0.662,1.996-1.298,3.9-1.925,5.805
	c-0.221,0.672-0.812,0.503-1.275,0.548c-4.225,0.409-8.452,0.806-12.68,1.188c-4.436,0.401-6.255,2.808-7.497,6.31
	c-1.409,3.974-2.599,8.025-4.089,11.966c-0.655,1.731-1.475,3.347-2.565,4.731c2.04,1.059,4.247,1.819,6.558,2.237L168.813,146.72z"
	/>
<path fill="#D7DF23" d="M177.478,110.676c-0.887-0.978-1.853-1.88-2.89-2.695v4.11h-8.486v-8.342
	c-0.649-0.171-1.309-0.317-1.977-0.431l-11.091,18.804c7.015-0.644,14.031-1.294,21.047-1.937c0.226-0.021,0.455-0.015,0.888-0.028
	c-0.69,2.029-1.343,3.969-2.013,5.902c-0.229,0.658-0.851,0.451-1.31,0.495c-7.494,0.72-14.989,1.422-22.484,2.132l-2.241,3.801
	l21.894,14.233l15.5-12.763l-0.915-9.863c-0.386-4.145-1.854-7.939-4.097-11.134h-1.825V110.676z M177.012,118.328h-4.81v-4.774
	h4.81V118.328z"/>
<rect x="167.146" y="97.03" fill="#D7DF23" width="4.961" height="4.924"/>
<rect x="175.75" y="96.114" fill="#D7DF23" width="5.259" height="5.22"/>
<path fill="#D7DF23" d="M174.588,103.669h-8.486v0.079c3.115,0.82,5.998,2.277,8.486,4.233V103.669z"/>
<path fill="#D7DF23" d="M177.479,110.676c0.654,0.721,1.264,1.483,1.825,2.284h5.243v-7.016h-7.068V110.676z"/>
<rect x="183.461" y="99.492" fill="#D7DF23" width="5.562" height="5.52"/>
<rect x="190.552" y="104.825" fill="#D7DF23" width="3.768" height="3.739"/>
<rect x="193.573" y="97.622" fill="#D7DF23" width="3.767" height="3.739"/>
<rect x="199.326" y="94.75" fill="#D7DF23" width="3.199" height="3.175"/>
</svg>
